<?xml version="1.0" encoding="UTF-8" standalone="no"?>
<!-- Created with Inkscape (http://www.inkscape.org/) -->

<svg
   xmlns:dc="http://purl.org/dc/elements/1.1/"
   xmlns:cc="http://creativecommons.org/ns#"
   xmlns:rdf="http://www.w3.org/1999/02/22-rdf-syntax-ns#"
   xmlns:svg="http://www.w3.org/2000/svg"
   xmlns="http://www.w3.org/2000/svg"
   xmlns:sodipodi="http://sodipodi.sourceforge.net/DTD/sodipodi-0.dtd"
   xmlns:inkscape="http://www.inkscape.org/namespaces/inkscape"
   width="500"
   height="400"
   viewBox="0 0 500.00001 400.00001"
   id="svg2"
   version="1.1"
   inkscape:version="0.91 r13725"
   sodipodi:docname="help-en.svg"
   inkscape:export-filename="C:\openserver\domains\github\rage-balancer\src\renderer\assets\help-en.png"
   inkscape:export-xdpi="89.552238"
   inkscape:export-ydpi="89.552238">
  <defs
     id="defs4" />
  <sodipodi:namedview
     id="base"
     pagecolor="#ffffff"
     bordercolor="#666666"
     borderopacity="1.0"
     inkscape:pageopacity="0.0"
     inkscape:pageshadow="2"
     inkscape:zoom="1.4"
     inkscape:cx="287.06246"
     inkscape:cy="236.68537"
     inkscape:document-units="px"
     inkscape:current-layer="layer1"
     showgrid="false"
     units="px"
     inkscape:window-width="1920"
     inkscape:window-height="1147"
     inkscape:window-x="1912"
     inkscape:window-y="-8"
     inkscape:window-maximized="1" />
  <metadata
     id="metadata7">
    <rdf:RDF>
      <cc:Work
         rdf:about="">
        <dc:format>image/svg+xml</dc:format>
        <dc:type
           rdf:resource="http://purl.org/dc/dcmitype/StillImage" />
        <dc:title></dc:title>
      </cc:Work>
    </rdf:RDF>
  </metadata>
  <g
     inkscape:label="Layer 1"
     inkscape:groupmode="layer"
     id="layer1"
     transform="translate(0,-652.36216)">
    <path
       style="fill:none;fill-opacity:1;stroke:#998a00;stroke-width:2;stroke-linecap:round;stroke-linejoin:round;stroke-miterlimit:4;stroke-dasharray:none;stroke-opacity:1"
       d="m 258.57143,760.93359 c -5.11241,0.006 -9.94003,1.75363 -15,2.14286 -1.42436,0.10956 -2.86077,-0.10179 -4.28572,0 -8.67879,0.61991 -2.73981,0.32781 -10,2.14285 -3.1542,0.78855 -8.6137,1.09741 -11.42857,1.42857 -1.67205,0.19672 -3.32014,0.6023 -5,0.71429 -1.90054,0.1267 -3.82423,-0.23626 -5.71428,0 -1.94822,0.24353 -3.78903,1.04352 -5.71429,1.42857 -3.12803,0.62561 -8.45734,1.03241 -11.42857,1.42857 -7.04983,0.93998 -1.75893,0.49465 -10,2.14286 -1.65089,0.33018 -3.32794,0.51757 -5,0.71429 -2.37644,0.27958 -4.80314,0.21291 -7.14286,0.71428 -1.04116,0.22311 -1.83725,1.12261 -2.85714,1.42857 -1.3872,0.41616 -2.88068,0.36303 -4.28571,0.71429 -1.46089,0.36522 -2.84646,0.98572 -4.28572,1.42857 -1.65671,0.50976 -3.33333,0.95238 -5,1.42857 -1.66667,0.47619 -3.32772,0.9725 -5,1.42857 -0.9471,0.2583 -1.93455,0.3788 -2.85714,0.71429 -1.70411,0.61967 -3.25649,1.64471 -5,2.14286 -1.54098,0.44028 -7.54821,0.8494 -9.28572,1.42857 -1.51522,0.50507 -2.83168,1.48193 -4.28571,2.14285 -1.7357,0.78896 -6.15303,2.43112 -7.85714,2.85715 -2.46882,0.6172 -4.76861,0.53822 -7.14286,1.42857 -0.997,0.37387 -1.84699,1.09185 -2.85714,1.42857 -1.15175,0.38392 -2.40858,0.36543 -3.57143,0.71429 -1.22811,0.36843 -2.38095,0.95238 -3.57143,1.42857 -1.190476,0.47619 -2.380952,0.95238 -3.571428,1.42857 -1.190477,0.47619 -2.370885,0.97837 -3.571429,1.42857 -0.704984,0.26437 -1.50438,0.31524 -2.142857,0.71429 -1.292819,0.80801 -2.264135,2.07276 -3.571429,2.85714 -6.186741,3.71204 -1.073729,-0.71275 -6.428571,2.85714 -1.268505,0.84567 -2.302924,2.01147 -3.571429,2.85714 -1.771925,1.18129 -3.865285,1.80058 -5.714285,2.85715 -0.745356,0.42591 -1.444296,0.9296 -2.142858,1.42857 -0.96873,0.69195 -1.792348,1.61046 -2.857143,2.14286 -0.878051,0.43902 -1.979091,0.27526 -2.857142,0.71428 -1.064795,0.5324 -1.904762,1.42857 -2.857143,2.14286 -0.952381,0.71428 -1.942594,1.38073 -2.857143,2.14286 -0.517347,0.43112 -0.902707,1.00788 -1.428572,1.42857 -2.252607,1.80208 -5.082217,2.93936 -7.142857,5 -1.078022,1.07802 -1.864976,2.4139 -2.857143,3.57143 -0.876531,1.02262 -1.994897,1.82244 -2.857142,2.85714 -0.762125,0.91455 -1.380733,1.94259 -2.142858,2.85714 -0.120537,0.14465 -2.832193,2.80725 -2.857142,2.85714 -0.439026,0.87806 -0.327579,1.95483 -0.714286,2.85715 -3.238647,7.55684 0.278673,-1.32395 -2.857143,2.85714 -1.099817,1.46642 -0.714286,5.29329 -0.714286,7.14286 0,0.71428 0,1.42857 0,2.14285 0,0.47619 -0.176852,0.98644 0,1.42858 0.318826,0.79706 0.986895,1.40673 1.428572,2.14285 0.273916,0.45653 0.394847,1.00266 0.714285,1.42857 0.404061,0.53875 1.037146,0.88058 1.428572,1.42858 0.806946,1.12972 1.335911,2.4417 2.142857,3.57142 0.391426,0.548 0.952381,0.95239 1.428571,1.42858 0.476191,0.47619 0.952381,0.95238 1.428572,1.42857 2.494367,2.49436 4.839097,5.25658 7.857143,7.14285 0.902944,0.56434 1.932642,0.90029 2.857143,1.42858 0.745356,0.42591 1.406729,0.98689 2.142857,1.42857 1.64603,0.98762 3.341903,1.88992 5,2.85714 1.199203,0.69953 2.307547,1.56837 3.571428,2.14286 1.370873,0.62312 2.880239,0.888 4.285715,1.42857 1.692416,0.65093 3.279772,1.56945 5,2.14286 8.4083,2.80276 -2.075002,-2.11572 8.571428,2.14285 1.977274,0.79091 3.681636,2.22194 5.714286,2.85715 1.832206,0.57256 3.859515,0.21968 5.714286,0.71428 1.752053,0.46722 3.260402,1.63121 5,2.14286 2.329441,0.68513 4.787251,0.83967 7.142861,1.42857 2.41156,0.60289 4.73129,1.53997 7.14285,2.14286 2.35561,0.5889 4.81716,0.73086 7.14286,1.42857 2.45622,0.73686 4.67716,2.15266 7.14286,2.85714 2.55956,0.7313 5.25591,0.86309 7.85714,1.42857 2.87786,0.62562 5.68826,1.5422 8.57143,2.14286 2.83567,0.59076 5.79074,0.61754 8.57143,1.42857 13.0429,3.80418 3.9007,3.67703 17.14285,5.71429 3.30297,0.50815 6.74376,-0.0372 10,0.71428 3.01598,0.696 5.59529,2.7211 8.57143,3.57143 2.07309,0.59231 4.32615,0.23646 6.42857,0.71429 3.15792,0.7177 6.12119,2.1692 9.28572,2.85714 1.19603,0.26001 14.17175,1.28453 15,1.42857 1.58221,0.27517 12.49324,3.2929 15,3.57143 2.12975,0.23664 4.29882,-0.23664 6.42857,0 2.1817,0.24241 4.24687,1.18616 6.42857,1.42857 2.12975,0.23664 4.28572,0 6.42857,0 1.90477,0 3.80953,0 5.71429,0 4.04762,0 8.09524,0 12.14286,0 2.14285,0 4.30039,-0.25037 6.42857,0 1.94993,0.22941 3.77761,1.10579 5.71428,1.42857 2.36027,0.39338 4.76318,0.4638 7.14286,0.71429 2.1442,0.2257 4.27625,0.58768 6.42857,0.71428 3.80295,0.22371 7.62491,-0.21131 11.42857,0 2.38915,0.13273 4.75334,0.58853 7.14286,0.71429 2.1399,0.11263 4.28571,0 6.42857,0 3.80953,0 7.61905,0 11.42857,0 10.95238,0 21.90477,0 32.85715,0 17.85714,0 35.71428,0 53.57142,0 5.71429,0 11.42858,0 17.14286,0 2.14286,0 4.28572,0 6.42857,0 0.71429,0 1.48633,0.28137 2.14286,0 1.09422,-0.46895 1.76292,-1.67391 2.85714,-2.14286 0.65654,-0.28137 1.43829,0.11743 2.14286,0 0.74268,-0.12378 1.44379,-0.43465 2.14286,-0.71428 1.11275,-0.4451 2.73293,-1.47207 3.57143,-2.14286 0.52586,-0.42069 0.88057,-1.03715 1.42857,-1.42857 1.12972,-0.80695 2.51733,-1.23935 3.57143,-2.14286 0.65179,-0.55868 0.82154,-1.53583 1.42857,-2.14286 3.33636,-3.33636 -0.85338,3.78008 3.57143,-2.85714 0.41764,-0.62647 0.24393,-1.55492 0.71428,-2.14286 0.53628,-0.67034 1.53583,-0.82154 2.14286,-1.42857 0.37646,-0.37646 0.44037,-0.97204 0.71428,-1.42857 0.44168,-0.73613 1.12715,-1.33905 1.42858,-2.14286 0.0942,-0.2511 0.80652,-4.93673 1.42857,-5.71428 0.53628,-0.67035 1.75894,-0.66074 2.14285,-1.42857 0.42592,-0.85184 -0.10517,-1.91059 0,-2.85715 0.13407,-1.20662 0.56371,-2.36675 0.71429,-3.57142 0.0886,-0.70877 0,-1.42858 0,-2.14286 0,-1.19048 0,-2.38095 0,-3.57143 0,-2.85714 0,-5.71429 0,-8.57143 0,-2.85714 0,-5.71428 0,-8.57143 0,-1.42857 0,-2.85714 0,-4.28571 0,-0.95238 0.10517,-1.91059 0,-2.85714 -0.13407,-1.20663 -0.47619,-2.38096 -0.71429,-3.57143 -1.0096,-5.04804 -0.33036,-2.41968 -2.14285,-7.85715 -0.47619,-1.42857 -0.8494,-2.8957 -1.42857,-4.28571 -2.81805,-6.76332 -0.95204,-2.0829 -5,-7.14286 -1.07256,-1.34069 -1.8473,-2.89717 -2.85715,-4.28571 -2.74614,-3.77595 -3.59868,-4.31297 -7.14285,-7.85714 -2.38096,-2.38096 -4.65135,-4.87785 -7.14286,-7.14286 -1.37598,-1.25089 -2.82349,-2.42254 -4.28572,-3.57143 -1.87218,-1.471 -3.95915,-2.67685 -5.71428,-4.28571 -1.12383,-1.03018 -1.71768,-2.55857 -2.85714,-3.57143 -1.03765,-0.92235 -2.41628,-1.37276 -3.57143,-2.14286 -1.70419,-1.13612 -3.26316,-2.4859 -5,-3.57143 -3.89136,-2.4321 -9.51822,-5.11625 -13.57143,-7.14286 -1.90476,-0.95238 -3.76824,-1.99223 -5.71429,-2.85714 -4.68669,-2.08297 -9.65069,-3.51875 -14.28571,-5.71428 -2.21537,-1.04939 -4.14391,-2.68295 -6.42857,-3.57143 -7.05971,-2.74545 -5.6942,-0.35212 -12.85715,-2.14286 -2.70362,-0.67591 -5.22676,-1.93651 -7.85714,-2.85714 -19.49336,-6.82268 6.4493,2.2205 -12.85714,-3.57143 -2.6693,-0.80079 -5.17754,-2.09154 -7.85714,-2.85714 -0.68681,-0.19623 -1.43068,0.0548 -2.14286,0 -2.38578,-0.18353 -4.82882,-0.10533 -7.14286,-0.71429 -2.26776,-0.59678 -4.20394,-2.1156 -6.42857,-2.85714 -1.37396,-0.45799 -2.87453,-0.38863 -4.28571,-0.71429 -15.17638,-3.50224 6.27048,0.95785 -10.71429,-3.57143 -1.62674,-0.4338 -3.36668,-0.30595 -5,-0.71428 -3.67448,-0.19449 -6.58518,-2.64012 -10,-3.57143 -1.39724,-0.38107 -2.92463,-0.21935 -4.28571,-0.71429 -8.06046,-2.93107 1.51241,-1.89079 -8.57143,-3.57143 -1.17428,-0.19571 -2.39715,0.19572 -3.57143,0 -1.70978,-0.28496 -3.30512,-1.06538 -5,-1.42857 -1.64622,-0.35276 -3.35953,-0.33571 -5,-0.71428 -6.6145,-1.52643 -2.21703,-1.74529 -10,-2.85715 -1.41421,-0.20203 -2.85714,0 -4.28572,0 -3.30968,0 -6.79074,0.35547 -10,-0.71428 -1.51522,-0.50508 -2.80275,-1.54968 -4.28571,-2.14286 -0.91148,-0.36459 -1.90476,-0.47619 -2.85714,-0.71428 -0.95238,-0.2381 -1.88303,-0.59253 -2.85715,-0.71429 -0.94502,-0.11813 -1.91433,0.13469 -2.85714,0 -0.74535,-0.10648 -1.40018,-0.59051 -2.14286,-0.71429 -0.70456,-0.11742 -1.42857,0 -2.14285,0 -0.71429,-0.23809 -1.40018,-0.5905 -2.14286,-0.71428 -0.70457,-0.11743 -1.44244,0.14008 -2.14286,0 -1.04411,-0.20882 -1.82414,-1.17032 -2.85714,-1.42857 -0.46197,-0.1155 -0.95238,0 -1.42857,0 -1.66667,0 -3.33333,0 -5,0 -0.47619,0 -1.00265,0.21296 -1.42857,0 -0.60234,-0.30117 -0.86824,-1.05502 -1.42857,-1.42857 -0.19811,-0.13208 -0.47619,0 -0.71429,0 -0.47619,0 -0.9666,0.11549 -1.42857,0 -0.5165,-0.12913 -0.9235,-0.54593 -1.42857,-0.71429 -0.403,-0.13433 -1.6735,0 -2.14286,0"
       id="path4144"
       inkscape:connector-curvature="0" />
    <text
       xml:space="preserve"
       style="font-style:normal;font-weight:normal;font-size:40px;line-height:125%;font-family:sans-serif;letter-spacing:0px;word-spacing:0px;fill:#998a00;fill-opacity:1;stroke:none;stroke-width:1px;stroke-linecap:butt;stroke-linejoin:miter;stroke-opacity:1;"
       x="32.142857"
       y="708.07642"
       id="text4146"
       sodipodi:linespacing="125%"><tspan
         sodipodi:role="line"
         id="tspan4148"
         x="32.142857"
         y="708.07642"
         style="font-size:17.5px;fill:#998a00;fill-opacity:1;stroke:none;stroke-opacity:1;">This is button you can click when you are angry</tspan><tspan
         sodipodi:role="line"
         x="32.142857"
         y="729.95142"
         style="font-size:17.5px;fill:#998a00;fill-opacity:1;stroke:none;stroke-opacity:1;"
         id="tspan4150">and wish to slow down</tspan></text>
    <flowRoot
       xml:space="preserve"
       id="flowRoot4152"
       style="font-style:normal;font-weight:normal;font-size:40px;line-height:125%;font-family:sans-serif;letter-spacing:0px;word-spacing:0px;fill:#998a00;fill-opacity:1;stroke:none;stroke-width:1px;stroke-linecap:butt;stroke-linejoin:miter;stroke-opacity:1"
       transform="translate(0,658.79073)"><flowRegion
         id="flowRegion4154"><rect
           id="rect4156"
           width="454.28571"
           height="62.142857"
           x="25.714285"
           y="287.85715"
           style="fill:#998a00;fill-opacity:1" /></flowRegion><flowPara
         id="flowPara4158"
         style="font-size:17.5px;fill:#998a00;fill-opacity:1">You may start clicking right now, and you will see</flowPara><flowPara
         style="font-size:17.5px;fill:#998a00;fill-opacity:1"
         id="flowPara4160">what happened</flowPara></flowRoot>  </g>
</svg>
